<svg xmlns="http://www.w3.org/2000/svg" xmlns:xlink="http://www.w3.org/1999/xlink" width="500" zoomAndPan="magnify" viewBox="0 0 375 374.999991" height="500" preserveAspectRatio="xMidYMid meet" version="1.2"><defs><clipPath id="d0c5276105"><path d="M 129 126 L 246 126 L 246 252.878906 L 129 252.878906 Z M 129 126 "/></clipPath><clipPath id="4fa0bca99c"><path d="M 126 122.378906 L 249.550781 122.378906 L 249.550781 252.878906 L 126 252.878906 Z M 126 122.378906 "/></clipPath></defs><g id="467e4320b5"><path style=" stroke:none;fill-rule:nonzero;fill:#e3f2fd;fill-opacity:1;" d="M 242.355469 129.5625 L 228.644531 238.441406 L 228.617188 238.652344 L 228.617188 245.699219 C 228.617188 247.582031 227.082031 249.117188 225.199219 249.117188 L 150.070312 249.117188 C 148.1875 249.117188 146.652344 247.582031 146.652344 245.699219 L 146.652344 238.65625 L 146.625 238.449219 L 133.085938 129.578125 L 242.335938 129.578125 L 242.355469 129.5625 "/><g clip-rule="nonzero" clip-path="url(#d0c5276105)"><path style=" stroke:none;fill-rule:nonzero;fill:#bbdefb;fill-opacity:1;" d="M 238.480469 132.992188 L 225.253906 238.015625 L 225.199219 238.4375 L 225.199219 245.699219 L 150.070312 245.699219 L 150.070312 238.445312 L 150.019531 238.023438 L 136.941406 132.992188 L 238.480469 132.992188 M 242.339844 126.160156 L 133.085938 126.160156 C 130.972656 126.160156 129.359375 127.972656 129.675781 129.988281 L 143.234375 238.867188 L 143.234375 245.699219 C 143.234375 249.472656 146.292969 252.53125 150.070312 252.53125 L 225.199219 252.53125 C 228.976562 252.53125 232.035156 249.472656 232.035156 245.699219 L 232.035156 238.867188 L 245.746094 129.988281 C 246.066406 127.976562 244.449219 126.160156 242.339844 126.160156 Z M 242.339844 126.160156 "/></g><g clip-rule="nonzero" clip-path="url(#4fa0bca99c)"><path style=" stroke:none;fill-rule:nonzero;fill:#78909c;fill-opacity:1;" d="M 248.648438 130.074219 L 249.167969 126.65625 C 249.480469 124.589844 247.878906 122.730469 245.789062 122.730469 L 129.558594 122.730469 C 127.46875 122.730469 125.867188 124.589844 126.179688 126.65625 L 126.699219 130.074219 C 126.949219 131.742188 128.386719 132.976562 130.078125 132.976562 L 245.273438 132.976562 C 246.960938 132.976562 248.398438 131.742188 248.648438 130.074219 Z M 225.199219 252.53125 L 150.070312 252.53125 C 146.292969 252.53125 143.234375 249.472656 143.234375 245.699219 L 143.234375 238.867188 L 232.035156 238.867188 L 232.035156 245.699219 C 232.035156 249.472656 228.976562 252.53125 225.199219 252.53125 Z M 225.199219 252.53125 "/></g><path style=" stroke:none;fill-rule:nonzero;fill:#1e88e5;fill-opacity:1;" d="M 190.203125 204.710938 L 196.1875 214.957031 L 196.1875 194.460938 Z M 190.203125 204.710938 "/><path style=" stroke:none;fill-rule:nonzero;fill:#1565c0;fill-opacity:1;" d="M 209 206.011719 L 214.3125 195.246094 C 215.382812 193.085938 215.230469 190.519531 213.914062 188.5 L 209.394531 180.796875 L 197.929688 188.246094 Z M 209 206.011719 "/><path style=" stroke:none;fill-rule:nonzero;fill:#1e88e5;fill-opacity:1;" d="M 195.332031 211.542969 L 204.097656 211.480469 C 205.425781 211.542969 206.675781 210.832031 207.296875 209.652344 L 214.183594 195.519531 C 214.183594 195.519531 212.316406 197.902344 206.945312 197.902344 L 194.902344 197.878906 Z M 174 182.507812 L 161.609375 182.507812 L 179.128906 193.609375 Z M 174 182.507812 "/><path style=" stroke:none;fill-rule:nonzero;fill:#1565c0;fill-opacity:1;" d="M 162.890625 197.878906 L 169.003906 208.132812 C 170.234375 210.207031 172.441406 211.539062 174.855469 211.542969 L 184.253906 211.542969 L 184.253906 197.878906 Z M 162.890625 197.878906 "/><path style=" stroke:none;fill-rule:nonzero;fill:#1e88e5;fill-opacity:1;" d="M 165.28125 183.34375 L 160.976562 190.714844 C 160.191406 191.792969 160.109375 193.226562 160.761719 194.390625 L 168.84375 207.871094 C 168.84375 207.871094 167.871094 205.007812 170.804688 200.511719 L 176.96875 190.449219 Z M 201.347656 179.898438 L 205.621094 169.648438 L 187.675781 179.898438 Z M 201.347656 179.898438 "/><path style=" stroke:none;fill-rule:nonzero;fill:#1565c0;fill-opacity:1;" d="M 192.164062 163.71875 L 180.152344 163.71875 C 177.738281 163.71875 175.507812 165.042969 174.277344 167.117188 L 169.507812 175.160156 L 181.269531 182.128906 Z M 192.164062 163.71875 "/><path style=" stroke:none;fill-rule:nonzero;fill:#1e88e5;fill-opacity:1;" d="M 199.277344 165.726562 C 198.679688 164.539062 197.554688 163.75 196.21875 163.71875 L 180.410156 163.71875 C 180.410156 163.71875 183.585938 163.984375 185.964844 168.796875 L 191.039062 178.808594 L 203.105469 172.367188 C 203.109375 172.367188 200.136719 167.4375 199.277344 165.726562 Z M 199.277344 165.726562 "/></g></svg>