<svg xmlns="http://www.w3.org/2000/svg" xmlns:xlink="http://www.w3.org/1999/xlink" width="500" zoomAndPan="magnify" viewBox="0 0 375 374.999991" height="500" preserveAspectRatio="xMidYMid meet" version="1.2"><defs><clipPath id="ed129df1ff"><path d="M 134 134 L 239 134 L 239 267.789062 L 134 267.789062 Z M 134 134 "/></clipPath><clipPath id="dd15482edc"><path d="M 124.5 124 L 250.5 124 L 250.5 135 L 124.5 135 Z M 124.5 124 "/></clipPath><clipPath id="e4927b7cbc"><path d="M 169 107.289062 L 207 107.289062 L 207 125 L 169 125 Z M 169 107.289062 "/></clipPath></defs><g id="0a1fb9b135"><g clip-rule="nonzero" clip-path="url(#ed129df1ff)"><path style=" stroke:none;fill-rule:evenodd;fill:#000000;fill-opacity:1;" d="M 238.839844 134.851562 L 238.839844 251.546875 C 238.839844 260.417969 233.101562 267.6875 226.097656 267.6875 L 147.351562 267.6875 C 140.339844 267.6875 134.613281 260.429688 134.613281 251.546875 L 134.613281 134.851562 Z M 238.839844 134.851562 "/></g><path style=" stroke:none;fill-rule:evenodd;fill:#b3b3b3;fill-opacity:1;" d="M 154.621094 155.199219 C 156.492188 155.199219 158.027344 156.738281 158.027344 158.609375 L 158.027344 246.484375 C 158.027344 248.355469 156.5 249.894531 154.621094 249.894531 C 152.75 249.894531 151.210938 248.363281 151.210938 246.484375 L 151.210938 158.609375 C 151.21875 156.738281 152.75 155.199219 154.621094 155.199219 Z M 154.621094 155.199219 "/><path style=" stroke:none;fill-rule:evenodd;fill:#b3b3b3;fill-opacity:1;" d="M 173.292969 155.199219 C 175.164062 155.199219 176.699219 156.730469 176.699219 158.609375 L 176.699219 246.484375 C 176.699219 248.355469 175.164062 249.894531 173.292969 249.894531 C 171.417969 249.894531 169.882812 248.363281 169.882812 246.484375 L 169.882812 158.609375 C 169.882812 156.730469 171.417969 155.199219 173.292969 155.199219 Z M 173.292969 155.199219 "/><path style=" stroke:none;fill-rule:evenodd;fill:#b3b3b3;fill-opacity:1;" d="M 196.171875 155.058594 C 198.042969 155.058594 199.582031 156.589844 199.582031 158.46875 L 199.582031 246.34375 C 199.582031 248.214844 198.050781 249.753906 196.171875 249.753906 C 194.300781 249.753906 192.761719 248.222656 192.761719 246.34375 L 192.761719 158.46875 C 192.769531 156.597656 194.300781 155.058594 196.171875 155.058594 Z M 196.171875 155.058594 "/><path style=" stroke:none;fill-rule:evenodd;fill:#b3b3b3;fill-opacity:1;" d="M 217.636719 155.15625 C 219.507812 155.15625 221.046875 156.683594 221.046875 158.566406 L 221.046875 246.441406 C 221.046875 248.3125 219.519531 249.847656 217.636719 249.847656 C 215.765625 249.847656 214.226562 248.320312 214.226562 246.441406 L 214.226562 158.558594 C 214.226562 156.683594 215.757812 155.15625 217.636719 155.15625 Z M 217.636719 155.15625 "/><g clip-rule="nonzero" clip-path="url(#dd15482edc)"><path style=" stroke:none;fill-rule:evenodd;fill:#cccccc;fill-opacity:1;" d="M 129.839844 124.199219 L 245.140625 124.199219 C 248.089844 124.199219 250.507812 126.617188 250.507812 129.570312 C 250.507812 132.523438 248.089844 134.929688 245.140625 134.929688 L 129.839844 134.929688 C 126.890625 134.929688 124.480469 132.511719 124.480469 129.570312 C 124.472656 126.617188 126.890625 124.199219 129.839844 124.199219 Z M 129.839844 124.199219 "/></g><g clip-rule="nonzero" clip-path="url(#e4927b7cbc)"><path style=" stroke:none;fill-rule:evenodd;fill:#000000;fill-opacity:1;" d="M 177.597656 107.390625 L 198.507812 107.390625 C 203.070312 107.390625 206.8125 109.976562 206.8125 113.128906 L 206.8125 124.726562 L 202.207031 124.726562 L 202.207031 114.648438 C 202.207031 112.269531 199.394531 110.328125 195.960938 110.328125 L 180.214844 110.328125 C 176.78125 110.328125 173.96875 112.269531 173.96875 114.648438 L 173.96875 124.726562 L 169.300781 124.726562 L 169.300781 113.128906 C 169.292969 109.976562 173.027344 107.390625 177.597656 107.390625 Z M 177.597656 107.390625 "/></g></g></svg>